<svg width="120" height="102" viewBox="0 0 120 102" fill="none" xmlns="http://www.w3.org/2000/svg">
<g id="Frame 63" opacity="0.5" filter="url(#filter0_f_2254_709)">
<path id="Ellipse 7" d="M12.4789 64.9445C12.4789 68.018 14.9704 70.5096 18.0439 70.5096C21.1175 70.5096 23.609 68.018 23.609 64.9445H12.4789ZM32.6752 30.5504L28.7915 26.5645V26.5645L32.6752 30.5504ZM103.584 30.5504L99.7006 34.5362V34.5362L103.584 30.5504ZM23.609 64.9445C23.609 53.5886 28.2365 42.6451 36.5588 34.5362L28.7915 26.5645C18.351 36.7373 12.4789 50.5422 12.4789 64.9445H23.609ZM36.5588 34.5362C44.8899 26.4188 56.2418 21.8151 68.1297 21.8151V10.6849C53.3816 10.6849 39.2306 16.3931 28.7915 26.5645L36.5588 34.5362ZM68.1297 21.8151C80.0177 21.8151 91.3696 26.4188 99.7006 34.5362L107.468 26.5645C97.0289 16.3931 82.8779 10.6849 68.1297 10.6849V21.8151ZM99.7006 34.5362C108.023 42.6451 112.65 53.5886 112.65 64.9445L123.781 64.9445C123.781 50.5422 117.908 36.7373 107.468 26.5645L99.7006 34.5362Z" fill="#090909"/>
<path id="Vector 54" d="M10.2576 50.1939C12.9576 46.412 20.3827 45.4666 23.7577 45.4666C18.3578 51.7697 21.804 77.9062 22.3664 89.9872C21.2415 90.5125 14.0185 90.3545 10.2576 88.013C5.19516 84.8612 6.88256 54.9213 10.2576 50.1939Z" fill="#090909" stroke="#090909" stroke-width="2.78254"/>
<path id="Vector 57" d="M126.299 50.1939C123.599 46.412 116.174 45.4666 112.799 45.4666C118.199 51.7697 114.753 77.9062 114.191 89.9872C115.316 90.5125 122.538 90.3545 126.299 88.013C131.362 84.8612 129.674 54.9213 126.299 50.1939Z" fill="#090909" stroke="#090909" stroke-width="2.78254"/>
<path id="Vector 53" d="M23.282 51.4827C34.1657 23.8399 56.0741 17.641 68.1299 17.641C80.1857 17.641 102.094 23.8399 112.978 51.4827C120.693 72.6902 121.658 117.812 68.1299 117.812C14.6015 117.812 15.5666 72.6902 23.282 51.4827Z" fill="#979797"/>
<path id="Vector 56" d="M54.2173 48.249C59.7824 49.6403 64.8837 52.4228 68.13 52.4228C71.3763 52.4228 76.4776 49.6401 82.0427 48.2488C87.6078 46.8575 105.694 46.8575 105.694 67.7266C105.694 88.5957 93.1729 102.509 68.13 102.509C43.0871 102.509 30.5657 88.5959 30.5657 67.7268C30.5657 46.8577 48.6522 46.8577 54.2173 48.249Z" fill="#090909" stroke="#090909" stroke-width="2.78254"/>
<circle id="Ellipse 8" cx="66.7389" cy="34.3358" r="5.56509" fill="#090909"/>
<rect id="Rectangle 1" x="44.4779" y="62.1623" width="11.1302" height="16.6953" rx="5.56509" fill="white"/>
<rect id="Rectangle 2" x="77.8685" y="62.1623" width="11.1302" height="16.6953" rx="5.56509" fill="white"/>
</g>
<defs>
<filter id="filter0_f_2254_709" x="-2" y="-5" width="140" height="140" filterUnits="userSpaceOnUse" color-interpolation-filters="sRGB">
<feFlood flood-opacity="0" result="BackgroundImageFix"/>
<feBlend mode="normal" in="SourceGraphic" in2="BackgroundImageFix" result="shape"/>
<feGaussianBlur stdDeviation="2.5" result="effect1_foregroundBlur_2254_709"/>
</filter>
</defs>
</svg>
