<svg width="130" height="102" viewBox="0 0 130 102" fill="none" xmlns="http://www.w3.org/2000/svg">
<g id="Frame 63">
<path id="Ellipse 7" d="M9.47886 64.9445C9.47886 68.018 11.9704 70.5096 15.0439 70.5096C18.1175 70.5096 20.609 68.018 20.609 64.9445H9.47886ZM29.6752 30.5504L25.7915 26.5645V26.5645L29.6752 30.5504ZM100.584 30.5504L96.7006 34.5362V34.5362L100.584 30.5504ZM20.609 64.9445C20.609 53.5886 25.2365 42.6451 33.5588 34.5362L25.7915 26.5645C15.351 36.7373 9.47886 50.5422 9.47886 64.9445H20.609ZM33.5588 34.5362C41.8899 26.4188 53.2418 21.8151 65.1297 21.8151V10.6849C50.3816 10.6849 36.2306 16.3931 25.7915 26.5645L33.5588 34.5362ZM65.1297 21.8151C77.0177 21.8151 88.3696 26.4188 96.7006 34.5362L104.468 26.5645C94.0289 16.3931 79.8779 10.6849 65.1297 10.6849V21.8151ZM96.7006 34.5362C105.023 42.6451 109.65 53.5886 109.65 64.9445L120.781 64.9445C120.781 50.5422 114.908 36.7373 104.468 26.5645L96.7006 34.5362Z" fill="white"/>
<path id="Vector 54" d="M7.25759 50.1939C9.95762 46.412 17.3827 45.4666 20.7577 45.4666C15.3578 51.7697 18.804 77.9062 19.3664 89.9872C18.2415 90.5125 11.0185 90.3545 7.25759 88.013C2.19516 84.8612 3.88256 54.9213 7.25759 50.1939Z" fill="white" stroke="white" stroke-width="2.78254"/>
<path id="Vector 57" d="M123.299 50.1939C120.599 46.412 113.174 45.4666 109.799 45.4666C115.199 51.7697 111.753 77.9062 111.19 89.9872C112.315 90.5125 119.538 90.3545 123.299 88.013C128.362 84.8612 126.674 54.9213 123.299 50.1939Z" fill="white" stroke="white" stroke-width="2.78254"/>
<path id="Vector 53" d="M20.282 51.4827C31.1657 23.8399 53.0741 17.641 65.1299 17.641C77.1857 17.641 99.0942 23.8399 109.978 51.4827C117.693 72.6902 118.658 117.812 65.1299 117.812C11.6015 117.812 12.5666 72.6902 20.282 51.4827Z" fill="#A7A7A7"/>
<path id="Vector 56" d="M51.2172 48.249C56.7823 49.6403 61.8836 52.4228 65.1299 52.4228C68.3762 52.4228 73.4775 49.6401 79.0426 48.2488C84.6077 46.8575 102.694 46.8575 102.694 67.7266C102.694 88.5957 90.1728 102.509 65.1299 102.509C40.087 102.509 27.5656 88.5959 27.5656 67.7268C27.5656 46.8577 45.6521 46.8577 51.2172 48.249Z" fill="white" stroke="white" stroke-width="2.78254"/>
<circle id="Ellipse 8" cx="63.7389" cy="34.3358" r="5.56509" fill="white"/>
<rect id="Rectangle 1" x="41.4778" y="62.1623" width="11.1302" height="16.6953" rx="5.56509" fill="#090909"/>
<rect id="Rectangle 2" x="74.8687" y="62.1623" width="11.1302" height="16.6953" rx="5.56509" fill="#090909"/>
</g>
</svg>
