<svg width="132" height="102" viewBox="0 0 132 102" fill="none" xmlns="http://www.w3.org/2000/svg">
<g id="Frame 63" filter="url(#filter0_f_2254_718)">
<path id="Ellipse 7" d="M10.4789 64.9445C10.4789 68.018 12.9704 70.5096 16.0439 70.5096C19.1175 70.5096 21.609 68.018 21.609 64.9445H10.4789ZM30.6752 30.5504L26.7915 26.5645V26.5645L30.6752 30.5504ZM101.584 30.5504L97.7006 34.5362V34.5362L101.584 30.5504ZM21.609 64.9445C21.609 53.5886 26.2365 42.6451 34.5588 34.5362L26.7915 26.5645C16.351 36.7373 10.4789 50.5422 10.4789 64.9445H21.609ZM34.5588 34.5362C42.8899 26.4188 54.2418 21.8151 66.1297 21.8151V10.6849C51.3816 10.6849 37.2306 16.3931 26.7915 26.5645L34.5588 34.5362ZM66.1297 21.8151C78.0177 21.8151 89.3696 26.4188 97.7006 34.5362L105.468 26.5645C95.0289 16.3931 80.8779 10.6849 66.1297 10.6849V21.8151ZM97.7006 34.5362C106.023 42.6451 110.65 53.5886 110.65 64.9445L121.781 64.9445C121.781 50.5422 115.908 36.7373 105.468 26.5645L97.7006 34.5362Z" fill="#E7E7E7"/>
<path id="Vector 54" d="M8.25759 50.1939C10.9576 46.412 18.3827 45.4666 21.7577 45.4666C16.3578 51.7697 19.804 77.9062 20.3664 89.9872C19.2415 90.5125 12.0185 90.3545 8.25759 88.013C3.19516 84.8612 4.88256 54.9213 8.25759 50.1939Z" fill="#E7E7E7" stroke="#E7E7E7" stroke-width="2.78254"/>
<path id="Vector 57" d="M124.299 50.1939C121.599 46.412 114.174 45.4666 110.799 45.4666C116.199 51.7697 112.753 77.9062 112.191 89.9872C113.316 90.5125 120.538 90.3545 124.299 88.013C129.362 84.8612 127.674 54.9213 124.299 50.1939Z" fill="#E7E7E7" stroke="#E7E7E7" stroke-width="2.78254"/>
<path id="Vector 53" d="M21.282 51.4827C32.1657 23.8399 54.0741 17.641 66.1299 17.641C78.1857 17.641 100.094 23.8399 110.978 51.4827C118.693 72.6902 119.658 117.812 66.1299 117.812C12.6015 117.812 13.5666 72.6902 21.282 51.4827Z" fill="#454545"/>
<path id="Vector 56" d="M52.2174 48.249C57.7824 49.6403 62.8838 52.4228 66.1301 52.4228C69.3764 52.4228 74.4777 49.6401 80.0428 48.2488C85.6079 46.8575 103.694 46.8575 103.694 67.7266C103.694 88.5957 91.173 102.509 66.1301 102.509C41.0872 102.509 28.5657 88.5959 28.5657 67.7268C28.5657 46.8577 46.6523 46.8577 52.2174 48.249Z" fill="#E7E7E7" stroke="#E7E7E7" stroke-width="2.78254"/>
<circle id="Ellipse 8" cx="64.7389" cy="34.3358" r="5.56509" fill="#E7E7E7"/>
<rect id="Rectangle 1" x="42.478" y="62.1623" width="11.1302" height="16.6953" rx="5.56509" fill="#454545"/>
<rect id="Rectangle 2" x="75.8685" y="62.1623" width="11.1302" height="16.6953" rx="5.56509" fill="#454545"/>
</g>
<defs>
<filter id="filter0_f_2254_718" x="-2" y="-3" width="136" height="136" filterUnits="userSpaceOnUse" color-interpolation-filters="sRGB">
<feFlood flood-opacity="0" result="BackgroundImageFix"/>
<feBlend mode="normal" in="SourceGraphic" in2="BackgroundImageFix" result="shape"/>
<feGaussianBlur stdDeviation="1.5" result="effect1_foregroundBlur_2254_718"/>
</filter>
</defs>
</svg>
