<svg width="12" height="12" viewBox="0 0 12 12" fill="none" xmlns="http://www.w3.org/2000/svg">
<path fill-rule="evenodd" clip-rule="evenodd" d="M7.63235 2C7.63235 0.89543 6.73692 0 5.63235 0C4.52778 0 3.63235 0.89543 3.63235 2V3.63235H2C0.895431 3.63235 0 4.52778 0 5.63235C0 6.73692 0.89543 7.63235 2 7.63235H3.63235V9.26471C3.63235 10.3693 4.52778 11.2647 5.63235 11.2647C6.73692 11.2647 7.63235 10.3693 7.63235 9.26471V7.63235H9.26471C10.3693 7.63235 11.2647 6.73692 11.2647 5.63235C11.2647 4.52778 10.3693 3.63235 9.26471 3.63235H7.63235V2Z" fill="#5996F2"/>
</svg>
