<svg width="49" height="43" viewBox="0 0 49 43" fill="none" xmlns="http://www.w3.org/2000/svg">
<path id="Vector" d="M49 13.8887C49 29.5695 26.2959 42.2619 25.3291 42.7861C25.0742 42.9265 24.7894 43 24.5 43C24.2106 43 23.9258 42.9265 23.6709 42.7861C22.7041 42.2619 0 29.5695 0 13.8887C0.00405286 10.2065 1.43426 6.67622 3.97684 4.07249C6.51942 1.46875 9.96675 0.00415034 13.5625 0C18.0797 0 22.0347 1.98922 24.5 5.35163C26.9653 1.98922 30.9203 0 35.4375 0C39.0333 0.00415034 42.4806 1.46875 45.0232 4.07249C47.5657 6.67622 48.9959 10.2065 49 13.8887Z" fill="#5996F2"/>
</svg>
