<svg width="82" height="77" viewBox="0 0 82 77" fill="none" xmlns="http://www.w3.org/2000/svg">
<g id="streamline:voice-mail-solid">
<path id="Vector" fill-rule="evenodd" clip-rule="evenodd" d="M39.5357 0C34.9593 0 30.5704 1.81795 27.3345 5.05391C24.0985 8.28988 22.2805 12.6788 22.2805 17.2551V37.3159C22.2805 39.5818 22.7269 41.8256 23.594 43.9191C24.4612 46.0126 25.7322 47.9148 27.3345 49.5171C28.9367 51.1194 30.8389 52.3904 32.9324 53.2575C35.0259 54.1247 37.2697 54.571 39.5357 54.571C41.8017 54.571 44.0455 54.1247 46.1389 53.2575C48.2324 52.3904 50.1346 51.1194 51.7369 49.5171C53.3392 47.9148 54.6102 46.0126 55.4774 43.9191C56.3445 41.8256 56.7908 39.5818 56.7908 37.3159V17.2551C56.7908 12.6788 54.9729 8.28988 51.7369 5.05391C48.5009 1.81795 44.112 0 39.5357 0ZM35.1428 70.3326V77.4314C35.1428 78.5965 35.6056 79.7138 36.4295 80.5377C37.2533 81.3615 38.3706 81.8243 39.5357 81.8243C40.7007 81.8243 41.8181 81.3615 42.6419 80.5377C43.4657 79.7138 43.9285 78.5965 43.9285 77.4314V70.3267C51.8214 69.9504 59.2666 66.5501 64.7194 60.8312C70.1722 55.1123 73.2142 47.5137 73.2143 39.6119C73.2143 38.4468 72.7514 37.3295 71.9276 36.5056C71.1038 35.6818 69.9865 35.219 68.8214 35.219C67.6563 35.219 66.539 35.6818 65.7152 36.5056C64.8914 37.3295 64.4285 38.4468 64.4285 39.6119C64.4285 45.4371 62.1145 51.0238 57.9953 55.143C53.8762 59.2621 48.2895 61.5761 42.4643 61.5761H36.6071C30.7818 61.5761 25.1951 59.2621 21.076 55.143C16.9569 51.0238 14.6428 45.4371 14.6428 39.6119C14.6428 39.035 14.5292 38.4637 14.3084 37.9308C14.0877 37.3978 13.7641 36.9136 13.3562 36.5056C12.9483 36.0977 12.464 35.7741 11.931 35.5534C11.3981 35.3326 10.8269 35.219 10.25 35.219C9.6731 35.219 9.10187 35.3326 8.5689 35.5534C8.03593 35.7741 7.55167 36.0977 7.14376 36.5056C6.73584 36.9136 6.41227 37.3978 6.1915 37.9308C5.97074 38.4637 5.85712 39.035 5.85712 39.6119C5.85568 47.5147 8.89699 55.1148 14.35 60.8349C19.8029 66.5551 27.2489 69.9562 35.1428 70.3326Z" fill="#5996F2"/>
</g>
</svg>
